<?xml version="1.0" encoding="utf-8"?>
<!-- Generator: Adobe Illustrator 22.1.0, SVG Export Plug-In . SVG Version: 6.00 Build 0)  -->
<svg version="1.1" id="Layer_1" xmlns="http://www.w3.org/2000/svg" xmlns:xlink="http://www.w3.org/1999/xlink" x="0px" y="0px"
	 viewBox="0 0 406 461" style="enable-background:new 0 0 406 461;" xml:space="preserve">
<style type="text/css">
	.st0{fill:#395185;}
	.st1{fill:#FFFFFF;}
	.st2{fill:#CCCCCC;}
</style>
<path class="st0" d="M1742.4,517c16.5,0,30-13.4,30-30V4c0-16.6-13.4-30-30-30h-483.1c-16.6,0-30,13.4-30,30V487
	c0,16.6,13.4,30,30,30H1742.4"/>
<path class="st1" d="M1604,517V306.7h70.6l10.6-82H1604v-52.3c0-23.7,6.6-39.9,40.6-39.9l43.4,0V59.2c-7.5-1-33.3-3.2-63.2-3.2
	c-62.6,0-105.4,38.2-105.4,108.3v60.4h-70.8v82h70.8V517H1604"/>
<path class="st1" d="M-314.4,461V250.7h70.6l10.6-82h-81.2v-52.3c0-23.7,6.6-39.9,40.6-39.9l43.4,0V3.2c-7.5-1-33.3-3.2-63.2-3.2
	C-356.2,0-399,38.2-399,108.3v60.4h-70.8v82h70.8V461H-314.4"/>
<path class="st2" d="M240.4,71.6c15-18.6,22.4-42.4,20.7-66.3c-23.8,2.4-46,13.8-61.8,32c-15.7,17.6-23.8,40.8-22.2,64.4
	C201.8,102.3,225.2,91.1,240.4,71.6"/>
<path class="st2" d="M260.7,105.7c-34.3-2.1-63.7,19.6-79.4,19.6s-41.5-18.6-68.9-18.1c-36.2,1-69.2,21.2-86.3,52.9
	c-37.2,63.9-9.8,159.3,26.5,210.3c17.4,26.5,38.4,52.9,66.3,52.9s36.5-16.9,68.4-16.9s41,16.9,68.9,16.5s46.7-26.5,64.1-51.5
	c12.4-18.1,21.9-38.2,28.6-59.1c-33.9-15-55.6-48.6-55.3-85.6c0.5-32.4,17.6-62.5,45.3-79.4c-17.6-25-46-40.5-76.5-41.5"/>
</svg>
