<?xml version="1.0" encoding="utf-8"?>
<!-- Generator: Adobe Illustrator 25.0.0, SVG Export Plug-In . SVG Version: 6.00 Build 0)  -->
<svg version="1.1" id="Layer_1" xmlns="http://www.w3.org/2000/svg" xmlns:xlink="http://www.w3.org/1999/xlink" x="0px" y="0px"
	 viewBox="0 0 100 100" style="enable-background:new 0 0 100 100;" xml:space="preserve">
<style type="text/css">
	.st0{fill-rule:evenodd;clip-rule:evenodd;fill:#AA1111;}
</style>
<path class="st0" d="M0,0h100v100H0V0L0,0z M38.1,25.9c-1.9,1.4-3.6,3.1-4.8,5.1c0.7,0.2,1.5,0.4,2.3,0.8L34.8,34
	c-0.8-0.4-1.7-0.7-2.6-0.9c-1.5,3.3-2,6.7-1.4,10.3l-1.4,3.5c-3.2-9.6,1.3-20.1,10.1-24.6L38.1,25.9L38.1,25.9z M41.2,34.8
	c2,1.7,4.1,4.2,6.2,8l0,0c0.3,0.6,0.6,1.2,0.9,1.8c-0.6,0.2-1.3,0.5-1.8,1v0l-0.1,0.1c-1.4-3.4-3.5-6.2-6.1-8.7L41.2,34.8L41.2,34.8
	z M65,30.5c0.4-0.1,0.7-0.4,1-0.5c-0.7-1.2-1.5-2-2.4-3l-1.8-4.4c5.6,3.8,9.2,10.2,9.2,17h0v0v0h0c0,1.4-0.1,2.7-0.4,4
	c-0.6-1.5-1.2-2.9-1.8-4.4c-0.1-2.5-0.6-5-1.7-7.3c-0.4,0.1-0.9,0.4-1.3,0.5L65,30.5L65,30.5z M54.5,23.7c-0.8-0.2-1.7-0.1-2.5-0.2
	l-1.2-3.1c0.9,0,1.8,0.1,2.6,0.3L54.5,23.7L54.5,23.7z M47.2,24l-1.7,0.4l0.8-3l0.2,0L47.2,24L47.2,24z M59.6,36.3
	c-0.5,0.5-1.2,1-1.8,1.5l-1.1-2.4c0.5-0.5,1.4-1.1,1.9-1.5L59.6,36.3L59.6,36.3z M54.6,42c-0.6,0.8-1,1.6-1.4,2.5l-2.4-0.2
	c0.8-1.7,1.8-3.3,2.8-4.8L54.6,42L54.6,42z M66.2,52.9c-0.4,0.5-1.1,1-1.5,1.5L63.4,52c0.2-0.2,1.5-1.9,1.6-1.9L66.2,52.9L66.2,52.9
	z M61.1,57.3c-2.7,1.8-5.8,3.1-9.1,3.5c1.6,3.1,5.1,5.2,8.6,5.1c1.2,0,2.3-0.6,3.4-1.4l1,2.4c-1.9,1.6-3.7,3.4-4.6,4
	c-0.3,0.2-0.5,0.3-0.7,0.3h0c-0.2,0-0.3,0-0.3-0.1c0-0.1-0.1-0.2,0-0.3l0,0c0-0.2,0.2-0.5,0.4-0.7l0,0l0.7-1c0.8-1.2-1-1.2-1.8-1.4
	c-4-0.9-7.2-2.5-9-6.8l0,0h0l0,0c-1.2,2.9-3.7,5.2-6.6,6.2h0c-1.6,0.5-2.1,0.6-2.8,0.7c-0.7,0.1-1.5,0-1.2,0.8
	c0.2,0.5,0.5,1.1,0.8,1.5c0.8,1-0.4,1.7-1.3,0.9c-1.3-1.2-3-4.1-4.9-5.5c-1-0.7-1.8-0.8-2.9-0.7c-1.4,0.1-1.4-1.5,0.1-1.9
	c0.9-0.2,1.7-0.1,2.6,0.3c0.9,0.4,1.8,1,2.7,1.7h0c1.1,0.8,1.3,0.9,2.5,1c3.5,0.1,7-2,8.6-5.1c-5.2-0.6-10-3.3-13.4-7.4l3.2,0.2
	c3,2.8,6.9,4.6,11,5c0.4-1.4,0.5-2.8,0.5-4.2c0.8,0.1,1.4,0.1,2.2-0.1c0,0.4,0.5,3.9,0.5,3.9c3.7,0,8.4-2.5,9.2-3.1L61.1,57.3
	L61.1,57.3z M67.9,62.2c0.5-0.1,1.5-0.1,2.2,0.3c0.7,0.5,1.2,1.8,0.2,2.1c-0.4,0.1-1.1,0.3-1.3,0.3L67.9,62.2L67.9,62.2z M49.5,16.3
	c0.7,0,1.4,0,2,0.1l1.1,2.7c-0.8-0.1-1.6-0.1-2.4-0.1l-1-2.6C49.3,16.3,49.4,16.3,49.5,16.3L49.5,16.3z M59.8,17.9
	C72.1,22,81.3,33.2,82.3,46.6l-2.6-0.2c-1-11.4-8.4-21-18.6-25.3L61,20.7L59.8,17.9L59.8,17.9z M82.4,50.4
	c-0.2,4.8-1.7,9.9-3.6,13.9c-0.5-1-0.9-1.9-1.4-2.9c1.3-3.1,2.3-7.4,2.5-11H82.4L82.4,50.4z M73.7,71.8c-0.3,0.4-1.1,1-1.5,1.3
	L71,70.4c0.4-0.4,1.3-1,1.6-1.4L73.7,71.8L73.7,71.8z M68.5,76.1c-5.4,3.8-11.9,6-18.9,6c-9,0-17.2-3.7-23.2-9.6
	c0.3-0.9,0.6-1.8,0.9-2.7c5.5,6,13.5,9.8,22.2,9.8c6.7,0,13-2.2,18-5.9C67.9,74.4,68.2,75.3,68.5,76.1L68.5,76.1z M21.5,66.3
	c-2.6-4.2-4.2-9-4.7-14.1l0.6,0c0.1,0,0.3,0.1,0.4,0.1v0l1.6,0.1c0.4,3.9,1.6,7.6,3.3,10.9L21.5,66.3L21.5,66.3z M16.6,48.7
	c0.2-15.1,10.7-27.7,24.7-31.4l-1.2,3c-11.9,3.9-20.6,15-20.9,28.1l-0.6,0.1l-0.7,0c-0.2,0-0.5,0-0.7,0.1L16.6,48.7L16.6,48.7z
	 M6.8,82.1l-0.1,0.6l29.9,0l0.1-0.6l-13.9-2.4c2.9-9.4,6.2-18.2,9.5-26.4L28.1,53c-3.6,8.9-7.3,17.8-11,26.7L6.8,82.1L6.8,82.1z
	 M34.4,48.3c4.5-10.8,8.8-20.5,12-28.8c3.7,8.6,7.3,17,10.8,25.3l2.6,0.2c-4-9.7-7.9-19.3-11.9-29.2c0.7-1.7,1.7-3.7,2.5-5.5
	c4.7,11.8,9.4,23.6,13.9,35l6,0.4C63.4,29.8,57.1,14,52.4,3h-4.1c-6,15.2-12.1,30.3-18.3,45.3l1.1,0L34.4,48.3L34.4,48.3z
	 M59.4,50.2c4,9.5,7.8,19.1,11.5,29.3l-10.2,2.1l0,0.7l31.6,0l-0.1-0.7l-7.7-2.1c-4.3-8.9-8.4-19-12.8-29.2l-2.9,0l-2.8,0
	c3.8,9.6,7.6,19.2,11.5,29.1c-1.4,0-2.4,0.1-3.8,0.1c-4-9.9-8-19.6-12-29.2L59.4,50.2L59.4,50.2z M50.2,45.3l32.1,2.3
	c0.4,0,0.7,0.4,0.7,0.9c0,0.5-0.3,0.9-0.7,0.9c-8.6-0.1-17.2-0.2-25.8-0.3c-1.7,0-3.4,0.7-3.8,1.8c-0.5,1.6-1.9,2.6-3.2,2.6
	l-32.4-2.3c-0.4,0-0.7-0.4-0.7-0.9c0-0.5,0.3-0.9,0.7-0.9c8.6,0.1,17.7-0.3,26.3-0.2c1.7,0,2.5-0.6,3-1.7
	C46.9,46,48.9,45.3,50.2,45.3L50.2,45.3z M4.7,86v9.8h90.7V86H4.7L4.7,86z M3.6,84.8h92.8V97H3.6V84.8L3.6,84.8z M91.7,88.4h-1.5
	c-1.3,0-1.9,0.3-1.9,0.9v0h0c0,0.1,0,0.2,0.1,0.3l0,0c0,0,0,0.1,0.1,0.1l0,0c0.4,0.5,1.2,0.6,1.8,0.6h1.4V88.4L91.7,88.4z
	 M91.7,91.6h-0.3l-3.7,3h-2.5l3.8-3.1l-0.2,0c-3.1-0.7-3.1-3.9,0-4.4c0.3,0,0.6-0.1,1-0.1h3.8v7.6h-1.9V91.6L91.7,91.6z M70.2,88.4
	h-1.5c-1.3,0-1.9,0.3-1.9,0.9v0h0c0,0.1,0,0.2,0.1,0.3l0,0c0,0,0,0.1,0.1,0.1l0,0c0.4,0.5,1.2,0.6,1.8,0.6h1.4V88.4L70.2,88.4z
	 M70.2,91.6h-0.3l-3.7,3h-2.5l3.8-3.1l-0.2,0c-3.1-0.7-3.1-3.9,0-4.4c0.3,0,0.6-0.1,1-0.1h3.8v7.6h-1.9V91.6L70.2,91.6z M82.5,87.1
	c0.6,0,1.2,0,1.9,0c0,2.5,0,5.1,0,7.6c-0.6,0-1.2,0-1.9,0C82.5,92.2,82.5,89.7,82.5,87.1L82.5,87.1z M75.8,93.4c1,0,2.1,0.1,3-0.2
	c0.7-0.2,0.7-1.1,0.1-1.5l-0.1-0.1l0,0c-0.8-0.4-2.2-0.2-3-0.2V93.4L75.8,93.4z M75.8,88.4v1.7c1.4,0,3.1-0.1,4.4,0.5
	c1.5,0.8,1.3,2.4,0.3,3.3v0c-0.3,0.2-0.7,0.4-1.2,0.5c-1.8,0.4-3.6,0.2-5.4,0.2c0-2.5,0-5.1,0-7.6H80c0,0.4,0,0.9,0,1.3H75.8
	L75.8,88.4z M61.1,88.4h-3.2v3.9v0h0c0,0.4,0,0.7-0.1,1v0l-0.1,0.1l0,0c-0.1,0.2-0.2,0.4-0.4,0.6c-0.2,0.2-0.4,0.3-0.6,0.4l0,0
	c-0.2,0.1-0.4,0.2-0.7,0.2c-0.2,0-0.5,0.1-0.7,0.1v0c-0.6,0-1.1,0-1.7,0c0-0.5,0-0.9,0-1.4c0.5,0.1,0.9,0.1,1.4,0h0
	c0.9-0.1,1-0.9,1-1.7v-4.6c2.3,0,4.6,0,6.9,0v7.6c-0.6,0-1.2,0-1.9,0V88.4L61.1,88.4z M49,93.4L49,93.4L49,93.4L49,93.4z M42.3,90.9
	c0-2.8,3.6-4,5.7-4c1.7,0,3.6,0.5,4.7,1.8c1.2,1.3,1.3,3,0,4.4l0,0c-0.2,0.2-0.4,0.4-0.7,0.6c-1.2,0.8-2.7,1.2-4.1,1.2
	c-1.4,0-3-0.3-4.1-1.2C43,93,42.3,92,42.3,90.9L42.3,90.9z M44.7,92.2L44.7,92.2c0.8,1,2.1,1.3,3.3,1.3h0v0c1.6,0,3.7-0.8,3.7-2.6v0
	h0c0-1.9-2.2-2.7-3.8-2.7c-1,0-2,0.2-2.8,0.8l0,0l0,0l0,0c0,0-0.1,0.1-0.1,0.1l0,0c0,0-0.1,0.1-0.1,0.1l0,0
	C44.1,90,44,91.2,44.7,92.2L44.7,92.2z M36.7,90.4h1.4h0v0c2.3,0,2.3-2.1-0.1-2.1h-1.3V90.4L36.7,90.4z M36.7,91.7v2.9h-1.9v-7.6
	h3.4v0c0.6,0,1.3,0,1.9,0.2c2.3,0.7,2.3,3.2,0.3,4.1h0l0,0v0c-0.1,0-0.2,0.1-0.2,0.1c-0.1,0-0.2,0.1-0.3,0.1v0
	c-0.4,0.1-1,0.2-1.6,0.2v0H36.7L36.7,91.7z M29.2,88.4h-2.6v-1.3h7v1.3H31v6.3h-1.9V88.4L29.2,88.4z M24.7,92.5l1,0.6l0.2,0.1
	l-0.2,0.2l0,0c-0.1,0.1-0.3,0.2-0.5,0.4v0c-0.2,0.1-0.3,0.2-0.5,0.3v0c-1.4,0.7-3,0.8-4.5,0.6h0c-0.3-0.1-0.6-0.1-0.9-0.2
	c-0.4-0.1-0.7-0.3-1-0.4c-0.3-0.2-0.5-0.3-0.8-0.5l0,0l0,0c-0.1-0.1-0.1-0.1-0.2-0.2c-1.1-1.1-1.6-2.8-0.7-4.2
	c0.7-1.1,1.9-1.7,3.1-2v0l0,0h0c0.1,0,0.2,0,0.3-0.1c0.1,0,0.2,0,0.3-0.1h0c1.9-0.3,3.6,0,5.2,1l-1.4,0.9c-1.2-1-2.8-1-4.2-0.5
	c-0.9,0.3-1.7,0.9-1.8,1.9c-0.2,1,0.3,2,1.3,2.6c0.2,0.1,0.4,0.2,0.6,0.3h0c0.9,0.3,2.2,0.3,3.1,0h0c0.1,0,0.2-0.1,0.2-0.1
	c0.4-0.1,0.7-0.4,1.1-0.6l0.1-0.1L24.7,92.5L24.7,92.5z M10,91.5h2.5l-1.2-1.7L10,91.5L10,91.5z M9.2,92.8l-1.3,1.9l-0.1,0.1H7.8
	H6.2H5.8l5.4-7.9l5.4,7.9c-0.7,0-1.4,0-2.1,0l-0.1-0.1l-1.3-1.9H9.2L9.2,92.8z"/>
</svg>
