<?xml version="1.0" encoding="utf-8"?>
<!-- Generator: Adobe Illustrator 22.1.0, SVG Export Plug-In . SVG Version: 6.00 Build 0)  -->
<svg version="1.1" id="Layer_1" xmlns="http://www.w3.org/2000/svg" xmlns:xlink="http://www.w3.org/1999/xlink" x="0px" y="0px"
	 viewBox="0 0 406 461" style="enable-background:new 0 0 406 461;" xml:space="preserve">
<style type="text/css">
	.st0{fill:#395185;}
	.st1{fill:#FFFFFF;}
	.st2{fill:#CCCCCC;}
	.st3{fill:#4285F4;}
	.st4{fill:#34A853;}
	.st5{fill:#FBBC05;}
	.st6{fill:#EB4335;}
</style>
<path class="st0" d="M1742.4,517c16.5,0,30-13.4,30-30V4c0-16.6-13.4-30-30-30h-483.1c-16.6,0-30,13.4-30,30V487
	c0,16.6,13.4,30,30,30H1742.4"/>
<path class="st1" d="M1604,517V306.7h70.6l10.6-82H1604v-52.3c0-23.7,6.6-39.9,40.6-39.9l43.4,0V59.2c-7.5-1-33.3-3.2-63.2-3.2
	c-62.6,0-105.4,38.2-105.4,108.3v60.4h-70.8v82h70.8V517H1604"/>
<path class="st1" d="M-314.4,461V250.7h70.6l10.6-82h-81.2v-52.3c0-23.7,6.6-39.9,40.6-39.9l43.4,0V3.2c-7.5-1-33.3-3.2-63.2-3.2
	C-356.2,0-399,38.2-399,108.3v60.4h-70.8v82h70.8V461H-314.4"/>
<path class="st2" d="M788.4,71.6c15-18.6,22.4-42.4,20.7-66.3c-23.8,2.4-46,13.8-61.8,32c-15.7,17.6-23.8,40.8-22.2,64.4
	C749.8,102.3,773.2,91.1,788.4,71.6"/>
<path class="st2" d="M808.7,105.7c-34.3-2.1-63.7,19.6-79.4,19.6s-41.5-18.6-68.9-18.1c-36.2,1-69.2,21.2-86.3,52.9
	c-37.2,63.9-9.8,159.3,26.5,210.3c17.4,26.5,38.4,52.9,66.3,52.9s36.5-16.9,68.4-16.9s41,16.9,68.9,16.5s46.7-26.5,64.1-51.5
	c12.4-18.1,21.9-38.2,28.6-59.1c-33.9-15-55.6-48.6-55.3-85.6c0.5-32.4,17.6-62.5,45.3-79.4c-17.6-25-46-40.5-76.5-41.5"/>
<path class="st3" d="M361.9,235.6c0-15-1.2-26-3.9-37.3H186.6V266h100.7c-2,16.8-13,42.2-37.3,59.3l-0.3,2.3l54.2,42l3.8,0.4
	C342,338.1,361.9,291.2,361.9,235.6"/>
<path class="st4" d="M186.6,414.2c49.3,0,90.7-16.2,121-44.3l-57.6-44.7c-15.4,10.8-36.1,18.3-63.3,18.3
	c-48.3,0-89.3-31.9-103.9-75.9l-2.1,0.2l-56.4,43.6l-0.7,2.1C53.4,373.2,115.1,414.2,186.6,414.2"/>
<path class="st5" d="M82.6,267.6c-3.9-11.4-6.1-23.5-6.1-36.1c0-12.6,2.2-24.8,5.9-36.1l-0.1-2.4l-57.1-44.3l-1.9,0.9
	c-12.4,24.8-19.5,52.6-19.5,82s7.1,57.2,19.5,82L82.6,267.6"/>
<path class="st6" d="M186.6,119.5c34.3,0,57.4,14.8,70.6,27.2l51.6-50.3c-31.7-29.4-72.9-47.5-122.2-47.5
	c-71.5,0-133.2,41-163.2,100.7l59.1,45.9C97.2,151.3,138.2,119.5,186.6,119.5"/>
</svg>
