<?xml version="1.0" encoding="utf-8"?>
<!-- Generator: Adobe Illustrator 25.0.0, SVG Export Plug-In . SVG Version: 6.00 Build 0)  -->
<svg version="1.1" id="Layer_1" xmlns="http://www.w3.org/2000/svg" xmlns:xlink="http://www.w3.org/1999/xlink" x="0px" y="0px"
	 viewBox="0 0 400 400" style="enable-background:new 0 0 400 400;" xml:space="preserve">
<style type="text/css">
	.st0{fill:#FFFFFF;}
</style>
<polygon class="st0" points="200,30.1 239.8,0 265,43 313.3,30.4 320.2,79.8 369.6,86.7 357,135 400,160.2 369.9,200 400,239.8 
	357,265 369.6,313.3 320.2,320.2 313.3,369.6 265,357 239.8,400 200,369.9 160.2,400 135,357 86.7,369.6 79.8,320.2 30.4,313.3 
	43,265 0,239.8 30.1,200 0,160.2 43,135 30.4,86.7 79.8,79.8 86.7,30.4 135,43 160.2,0 "/>
</svg>
